Coordinates
version=1
nRows=8
nColumns=63
inDegrees=yes

Units are S.I. units (second, meters, Newtons, ...)
If the header above contains a line with 'inDegrees', this indicates whether rotational values are in degrees (yes) or radians (no).

endheader
time	pelvis_tilt	pelvis_list	pelvis_rotation	pelvis_tx	pelvis_ty	pelvis_tz	hip_flexion_r	hip_adduction_r	hip_rotation_r	knee_angle_r	knee_angle_r_beta	ankle_angle_r	subtalar_angle_r	mtp_angle_r	hip_flexion_l	hip_adduction_l	hip_rotation_l	knee_angle_l	knee_angle_l_beta	ankle_angle_l	subtalar_angle_l	mtp_angle_l	L5_S1_Flex_Ext	L5_S1_Lat_Bending	L5_S1_axial_rotation	L4_L5_Flex_Ext	L4_L5_Lat_Bending	L4_L5_axial_rotation	L3_L4_Flex_Ext	L3_L4_Lat_Bending	L3_L4_axial_rotation	L2_L3_Flex_Ext	L2_L3_Lat_Bending	L2_L3_axial_rotation	L1_L2_Flex_Ext	L1_L2_Lat_Bending	L1_L2_axial_rotation	L1_T12_Flex_Ext	L1_T12_Lat_Bending	L1_T12_axial_rotation	Abs_r3	Abs_r2	Abs_r1	Abs_t1	Abs_t2	neck_flexion	neck_bending	neck_rotation	arm_flex_r	arm_add_r	arm_rot_r	elbow_flex_r	pro_sup_r	wrist_flex_r	wrist_dev_r	arm_flex_l	arm_add_l	arm_rot_l	elbow_flex_l	pro_sup_l	wrist_flex_l	wrist_dev_l
4.350000	4.810617	-2.658458	94.696619	0.151877	0.886713	0.440230	6.567669	-1.515582	-27.934965	21.671484	0.378239	36.555443	18.744752	0.000000	11.369395	-4.422367	-4.530740	25.323261	0.441974	36.003382	11.172742	0.000000	0.130100	-0.047071	1.125507	0.241609	-0.062604	1.195851	0.213741	-0.114448	1.195851	0.148691	-0.114448	0.984819	0.120811	-0.095987	0.914474	0.074339	-0.072913	0.844130	0.929291	-0.532474	6.259732	0.000000	0.000000	27.746447	-6.674892	-21.679904	2.790586	-9.282997	53.322531	27.747752	70.537244	1.634626	10.568723	7.241369	-8.264631	61.857024	32.015177	73.291952	-3.653122	-4.399124
4.366667	4.829585	-2.664391	94.762321	0.151838	0.886592	0.441070	6.642125	-1.499360	-27.915711	21.665258	0.378130	36.532738	18.748781	0.000000	11.503054	-4.371155	-4.099694	25.365820	0.442717	35.904059	10.639909	0.000000	0.125574	-0.053307	1.094425	0.233203	-0.070899	1.162827	0.206305	-0.129611	1.162827	0.143518	-0.129611	0.957622	0.116608	-0.108704	0.889221	0.071753	-0.082573	0.820819	0.896962	-0.603022	6.086865	0.000000	0.000000	27.739437	-6.429441	-21.869199	3.111979	-9.407419	53.711982	27.837021	72.329734	1.407066	10.376568	7.386235	-8.232439	61.946298	31.799423	73.454122	-3.814542	-4.384652
4.383333	4.834887	-2.663825	94.768311	0.151895	0.886497	0.441919	6.722568	-1.498033	-27.861960	21.685764	0.378488	36.493535	18.751298	0.000000	11.607426	-4.316207	-3.727032	25.384537	0.443044	35.762380	10.045177	0.000000	0.121666	-0.062402	1.071852	0.225946	-0.082995	1.138843	0.199885	-0.151724	1.138843	0.139052	-0.151724	0.937871	0.112979	-0.127250	0.870880	0.069520	-0.096661	0.803889	0.869048	-0.705904	5.961321	0.000000	0.000000	27.733808	-6.188078	-22.108742	3.464588	-9.529216	54.144905	27.927658	74.311090	1.092480	10.175951	7.499334	-8.217685	61.943888	31.606188	73.767362	-3.970912	-4.363156
4.400000	4.830876	-2.659753	94.711737	0.152072	0.886422	0.442761	6.810485	-1.504038	-27.770975	21.730199	0.379264	36.441028	18.750465	0.000000	11.684069	-4.276882	-3.475840	25.382019	0.443000	35.620979	9.497642	0.000000	0.118567	-0.073998	1.060180	0.220190	-0.098417	1.126441	0.194793	-0.179918	1.126441	0.135510	-0.179918	0.927657	0.110101	-0.150896	0.861396	0.067749	-0.114622	0.795135	0.846911	-0.837077	5.896402	0.000000	0.000000	27.731295	-5.958255	-22.417308	3.835974	-9.640982	54.606760	28.011648	76.425260	0.739862	9.989382	7.565640	-8.222763	61.801475	31.449826	74.295274	-4.104010	-4.319137
4.416667	4.809302	-2.655772	94.597718	0.152384	0.886365	0.443564	6.908255	-1.526275	-27.648495	21.802344	0.380523	36.386040	18.750361	0.000000	11.728006	-4.244507	-3.349250	25.342989	0.442319	35.510164	9.037347	0.000000	0.116595	-0.089123	1.060209	0.216529	-0.118534	1.126472	0.191555	-0.216694	1.126472	0.133257	-0.216694	0.927683	0.108270	-0.181740	0.861420	0.066623	-0.138052	0.795157	0.832829	-1.008177	5.896563	0.000000	0.000000	27.732951	-5.728081	-22.774853	4.239212	-9.731700	55.219454	28.048390	78.470072	0.400164	9.805472	7.601920	-8.270033	61.623292	31.349554	74.914258	-4.243214	-4.251949
4.433333	4.766989	-2.653752	94.433241	0.152823	0.886333	0.444296	7.011053	-1.563568	-27.491974	21.889031	0.382036	36.340627	18.749464	0.000000	11.735203	-4.209249	-3.314002	25.252983	0.440748	35.441234	8.654119	0.000000	0.115904	-0.107953	1.072408	0.215245	-0.143577	1.139433	0.190419	-0.262476	1.139433	0.132467	-0.262476	0.938357	0.107628	-0.220137	0.871331	0.066228	-0.167219	0.804306	0.827890	-1.221182	5.964409	0.000000	0.000000	27.740336	-5.499624	-23.165599	4.686886	-9.789513	56.128997	28.000087	80.317720	0.091587	9.604666	7.637225	-8.363728	61.546958	31.292997	75.497116	-4.431853	-4.207975
4.450000	4.706483	-2.657018	94.215610	0.153408	0.886317	0.444908	7.115276	-1.606659	-27.288288	21.975948	0.383553	36.310443	18.746023	0.000000	11.702482	-4.183804	-3.422830	25.105856	0.438180	35.439105	8.441382	0.000000	0.117320	-0.130205	1.099368	0.217876	-0.173173	1.168079	0.192746	-0.316581	1.168079	0.134085	-0.316581	0.961947	0.108944	-0.265515	0.893237	0.067037	-0.201688	0.824526	0.838007	-1.472908	6.114356	0.000000	0.000000	27.755957	-5.274798	-23.555827	5.143073	-9.809368	57.223323	27.871116	81.974129	-0.134706	9.415714	7.632216	-8.498863	61.402727	31.308639	76.182917	-4.599042	-4.120602
4.466667	4.621371	-2.668392	93.948285	0.154145	0.886312	0.445376	7.220176	-1.659644	-27.031440	22.057586	0.384977	36.314230	18.742384	0.000000	11.629363	-4.156333	-3.651104	24.891601	0.434440	35.501162	8.396453	0.000000	0.120979	-0.156705	1.146069	0.224671	-0.208418	1.217698	0.198757	-0.381013	1.217698	0.138267	-0.381013	1.002810	0.112341	-0.319553	0.931181	0.069128	-0.242736	0.859551	0.864143	-1.772681	6.374090	0.000000	0.000000	27.779536	-5.078723	-23.954238	5.581623	-9.778329	58.466105	27.647215	83.450657	-0.303824	9.211518	7.612281	-8.674107	61.260916	31.388687	76.922369	-4.762549	-3.997572
